<!DOCTYPE svg PUBLIC "-//W3C//DTD SVG 20010904//EN" "http://www.w3.org/TR/2001/REC-SVG-20010904/DTD/svg10.dtd">
<svg version="1.0" xmlns="http://www.w3.org/2000/svg" width="434px" height="434px" viewBox="0 0 4340 4340" preserveAspectRatio="xMidYMid meet">
<g id="layer101" fill="#1b2020" stroke="none">
 <path d="M1991 4329 c-521 -46 -983 -260 -1346 -624 -339 -338 -545 -746 -621 -1230 -23 -149 -23 -459 1 -610 50 -325 162 -620 339 -890 366 -559 974 -914 1654 -965 426 -33 889 77 1260 298 561 335 936 897 1037 1557 24 151 24 451 1 600 -63 403 -216 755 -462 1062 -325 406 -792 682 -1304 772 -219 39 -369 47 -559 30z"/>
 </g>
<g id="layer102" fill="#3ec9a6" stroke="none">
 <path d="M2529 4205 c-107 -34 -189 -147 -189 -261 0 -104 44 -189 125 -240 l45 -29 0 -1315 0 -1315 -273 -239 -272 -239 -3 879 c-2 811 -1 880 14 889 55 33 102 77 128 118 40 65 49 181 19 248 -82 184 -318 233 -456 95 -109 -109 -115 -274 -14 -384 23 -24 58 -52 79 -63 l38 -19 0 -323 0 -322 -222 -180 c-122 -99 -230 -186 -240 -193 -17 -13 -18 13 -18 786 l0 799 24 11 c43 19 97 74 124 126 38 73 38 179 0 251 -88 167 -303 206 -439 78 -66 -62 -92 -126 -87 -217 2 -41 12 -87 22 -108 23 -47 86 -112 126 -128 l30 -12 0 -1009 0 -1009 338 275 337 274 5 -644 5 -644 465 407 465 408 5 486 5 485 330 -268 c182 -148 333 -269 338 -269 4 0 7 358 7 795 l0 795 38 19 c168 87 194 336 48 456 -121 99 -292 86 -394 -30 -78 -88 -91 -201 -36 -312 23 -48 64 -89 128 -128 15 -9 16 -63 14 -599 l-3 -588 -237 193 -238 193 0 742 0 742 44 26 c242 142 159 506 -119 522 -35 2 -79 -2 -106 -11z m169 -135 c128 -78 73 -284 -76 -284 -91 0 -156 65 -156 156 0 113 134 187 232 128z m662 -692 c88 -45 113 -157 52 -230 -50 -60 -129 -74 -196 -35 -134 77 -78 280 79 286 12 1 41 -9 65 -21z m-2089 -91 c93 -61 91 -200 -3 -257 -47 -28 -126 -27 -164 2 -41 32 -52 48 -64 91 -15 51 1 105 42 144 40 37 50 41 109 42 32 1 56 -6 80 -22z m677 -564 c41 -29 75 -104 67 -146 -11 -57 -42 -97 -92 -119 -173 -77 -301 174 -137 270 47 28 121 26 162 -5z"/>
 </g>

</svg>